<?xml version="1.0" encoding="UTF-8" standalone="no"?>
<!-- Generator: Adobe Adobe Illustrator 24.2.0, SVG Export Plug-In . SVG Version: 6.00 Build 0)  -->

<svg
   version="1.1"
   x="0px"
   y="0px"
   width="250"
   height="1500"
   viewBox="0 0 249.99999 1500"
   xml:space="preserve"
   id="svg17574"
   sodipodi:docname="WaveL2.svg"
   inkscape:version="1.1.1 (3bf5ae0d25, 2021-09-20)"
   xmlns:inkscape="http://www.inkscape.org/namespaces/inkscape"
   xmlns:sodipodi="http://sodipodi.sourceforge.net/DTD/sodipodi-0.dtd"
   xmlns="http://www.w3.org/2000/svg"
   xmlns:svg="http://www.w3.org/2000/svg"><defs
   id="defs17578" /><sodipodi:namedview
   id="namedview17576"
   pagecolor="#ffffff"
   bordercolor="#666666"
   borderopacity="1.0"
   inkscape:pageshadow="2"
   inkscape:pageopacity="0.0"
   inkscape:pagecheckerboard="0"
   showgrid="false"
   fit-margin-top="0"
   fit-margin-left="0"
   fit-margin-right="0"
   fit-margin-bottom="0"
   inkscape:zoom="20.48"
   inkscape:cx="194.60449"
   inkscape:cy="745.41016"
   inkscape:window-width="1920"
   inkscape:window-height="1011"
   inkscape:window-x="0"
   inkscape:window-y="0"
   inkscape:window-maximized="1"
   inkscape:current-layer="svg17574" />
<style
   type="text/css"
   id="style17551">
	.st0{fill:#3459BF;}
	.st1{display:none;}
	.st2{display:inline;fill:#2351AD;}
	.st3{display:inline;fill:#182E59;}
</style>
<g
   id="Layer_1"
   transform="translate(1990.03,-3630.0047)">
</g>
<g
   id="Layer_4"
   transform="translate(1990.03,-3630.0047)">
</g>
<g
   id="Layer_2"
   transform="matrix(0.02499982,0,0,0.00349265,49.750402,735.01466)"
   style="stroke-width:214.03461771;stroke-miterlimit:4;stroke-dasharray:none">
	<g
   id="g17559"
   style="stroke-width:214.03461771;stroke-miterlimit:4;stroke-dasharray:none">
		<path
   class="st0"
   d="m -1990.03,3833.07 c 144.82,-63.86 439.31,-213.85 632.35,-202.45 185.27,10.94 452.9,147.55 593.32,202.45 151.69,59.31 450.91,214.02 652.73,211.66 197.57,-2.31 481.72,-154.56 628.45,-213.5 141.05,-56.66 421.93,-201.32 611.91,-200.61 197.89,0.73 495.8,146.41 644.99,204.29 145.41,56.41 427.33,205.75 620.18,204.29 192.64,-1.46 616.05,-206.13 616.05,-206.13 L 3010,5000 h -4999.97 z"
   id="path17555"
   style="stroke:#3459bf;stroke-width:214.03461771;stroke-miterlimit:4;stroke-dasharray:none;stroke-opacity:1" />
		<path
   class="st0"
   d="m 3010,3833.07 c 144.82,-63.86 439.31,-213.85 632.35,-202.45 185.27,10.94 452.9,147.55 593.32,202.45 151.69,59.31 450.91,214.02 652.73,211.66 197.57,-2.31 481.72,-154.56 628.45,-213.5 141.05,-56.66 421.93,-201.32 611.91,-200.61 197.89,0.73 495.8,146.41 644.99,204.29 145.41,56.41 427.33,205.75 620.18,204.29 192.64,-1.46 616.05,-206.13 616.05,-206.13 L 8010.04,5000 H 3010.06 Z"
   id="path17557"
   style="stroke:#3459bf;stroke-width:214.03461771;stroke-miterlimit:4;stroke-dasharray:none;stroke-opacity:1" />
	</g>
	<g
   class="st1"
   id="g17565"
   style="stroke-width:214.03461771;stroke-miterlimit:4;stroke-dasharray:none">
		<path
   class="st2"
   d="M 2500,5000 H 0 V 2868.71 c 0,0 220.98,276.59 304.51,255.69 87.77,-21.96 239.4,-202.24 316.34,-282.81 76.07,-79.67 225.81,-278.71 313.38,-275.72 87.59,2.99 234.82,205.36 310.43,286.57 75.91,81.54 231.35,274.4 319.3,271.25 86.61,-3.1 237.81,-193.57 313.38,-271.25 77.3,-79.44 230.71,-283.7 319.3,-282.1 83.63,1.51 303.36,298.37 303.36,298.37 z"
   id="path17561"
   style="stroke-width:214.03461771;stroke-miterlimit:4;stroke-dasharray:none" />
		<path
   class="st2"
   d="M 5000,5000 H 2500 V 2868.71 c 0,0 220.98,276.59 304.51,255.69 87.77,-21.96 239.4,-202.24 316.34,-282.81 76.07,-79.67 225.81,-278.71 313.38,-275.72 87.59,2.99 234.82,205.36 310.43,286.57 75.91,81.54 231.35,274.4 319.3,271.25 86.61,-3.1 237.81,-193.57 313.38,-271.25 77.3,-79.44 230.71,-283.7 319.3,-282.1 83.63,1.51 303.36,298.37 303.36,298.37 z"
   id="path17563"
   style="stroke-width:214.03461771;stroke-miterlimit:4;stroke-dasharray:none" />
	</g>
	<g
   class="st1"
   id="g17571"
   style="stroke-width:214.03461771;stroke-miterlimit:4;stroke-dasharray:none">
		<path
   class="st3"
   d="M 2500,5000 H 0 V 3520.28 c 0,0 220.98,192.03 304.51,177.52 87.77,-15.25 239.4,-140.41 316.34,-196.35 76.07,-55.32 225.81,-193.5 313.38,-191.43 87.59,2.07 234.82,142.58 310.43,198.96 75.91,56.61 231.35,190.51 319.3,188.32 86.61,-2.16 237.81,-134.39 313.38,-188.32 77.3,-55.16 230.71,-196.97 319.3,-195.85 83.63,1.05 303.36,207.15 303.36,207.15 z"
   id="path17567"
   style="stroke-width:214.03461771;stroke-miterlimit:4;stroke-dasharray:none" />
		<path
   class="st3"
   d="M 5000,5000 H 2500 V 3520.28 c 0,0 220.98,192.03 304.51,177.52 87.77,-15.25 239.4,-140.41 316.34,-196.35 76.07,-55.32 225.81,-193.5 313.38,-191.43 87.59,2.07 234.82,142.58 310.43,198.96 75.91,56.61 231.35,190.51 319.3,188.32 86.61,-2.16 237.81,-134.39 313.38,-188.32 77.3,-55.16 230.71,-196.97 319.3,-195.85 83.63,1.05 303.36,207.15 303.36,207.15 z"
   id="path17569"
   style="stroke-width:214.03461771;stroke-miterlimit:4;stroke-dasharray:none" />
	</g>
</g>
<rect
   style="fill:#3459bf;fill-opacity:1;stroke:#3459bf;stroke-width:10;stroke-miterlimit:4;stroke-dasharray:none;stroke-opacity:1"
   id="rect17604"
   width="240.01546"
   height="744.01837"
   x="4.9922681"
   y="755.23877"
   ry="0" /></svg>
